<svg width="520" height="360" viewBox="0 0 520 360" fill="none" xmlns="http://www.w3.org/2000/svg" role="img" aria-labelledby="title desc">
  <title id="title">Bridge Agent Network logo</title>
  <desc id="desc">Gold bridge mark with white Bridge Agent Network lettering.</desc>
  <rect width="520" height="360" fill="#000000"/>
  <g stroke="#D5A64A" stroke-width="8" stroke-linecap="square" stroke-linejoin="round">
    <path d="M65 126 C130 101 176 70 224 36"/>
    <path d="M455 126 C390 101 344 70 296 36"/>
    <path d="M65 126 H455"/>
    <path d="M160 126 V34"/>
    <path d="M360 126 V34"/>
    <path d="M160 34 C210 76 248 102 260 126"/>
    <path d="M360 34 C310 76 272 102 260 126"/>
    <path d="M160 58 C205 84 239 106 260 126"/>
    <path d="M360 58 C315 84 281 106 260 126"/>
    <path d="M160 82 C198 98 230 113 260 126"/>
    <path d="M360 82 C322 98 290 113 260 126"/>
    <path d="M260 126 V91"/>
  </g>
  <text x="260" y="207" text-anchor="middle" fill="#F7F8FB" font-family="Georgia, 'Times New Roman', serif" font-size="58" letter-spacing="15">BRIDGE</text>
  <text x="260" y="258" text-anchor="middle" fill="#F7F8FB" font-family="Arial, Helvetica, sans-serif" font-size="31" font-weight="500" letter-spacing="10">AGENT NETWORK</text>
</svg>
